<svg xmlns="http://www.w3.org/2000/svg" viewBox="0 0 48 48" fill="none" stroke-width="2.5" stroke-linecap="round" stroke-linejoin="round">
  <style>
    /* Light Mode */
    path, circle, line { stroke: #111827; }
    /* Dark Mode */
    @media (prefers-color-scheme: dark) {
      path, circle, line { stroke: #F9FAFB; }
    }
  </style>
  
  <path d="M40,5.5H7a2,2,0,0,0-2,2v33a2,2,0,0,0,2,2H40a2,2,0,0,0,2-2V7.5A2,2,0,0,0,40,5.5Z" />
  
  <circle cx="14.5" cy="20.5" r="5" />
  <line x1="19.5" y1="20.5" x2="19.5" y2="10.5" />
  <path d="M 19.5 20.5 H 29.5 A 5 5 0 1 0 28.04 24.04" />

  <circle cx="14.5" cy="32.5" r="5" />
  <line x1="9.5" y1="32.5" x2="9.5" y2="22.5" />
  <circle cx="24.5" cy="32.5" r="5" stroke-dasharray="11 4.708" transform="rotate(-45 24.5 32.5)" />
  <circle cx="24.5" cy="32.5" r="1.5" />
  <line x1="38.5" y1="37.5" x2="30.5" y2="27.5" />
  <line x1="38.5" y1="27.5" x2="30.5" y2="37.5" />
</svg>
